<svg xmlns="http://www.w3.org/2000/svg" viewBox="0 0 64 64" width="64" height="64" shape-rendering="crispEdges">
  <title>Favicon personalizado inspirado en Terraria</title>

  <defs>
    <linearGradient id="sky" x1="0" y1="0" x2="0" y2="1">
      <stop offset="0%" stop-color="#87d7ff"></stop>
      <stop offset="100%" stop-color="#d9f4ff"></stop>
    </linearGradient>
  </defs>

  <rect x="0" y="0" width="64" height="64" rx="8" fill="url(#sky)"></rect>

  <rect x="6" y="8" width="8" height="4" fill="#fff" opacity="0.8"></rect>
  <rect x="10" y="4" width="12" height="8" fill="#fff" opacity="0.8"></rect>
  <rect x="18" y="8" width="8" height="4" fill="#fff" opacity="0.8"></rect>

  <rect x="16" y="54" width="32" height="4" fill="#000" opacity="0.15"></rect>

  <rect x="12" y="28" width="40" height="24" fill="#8f5b2e"></rect>
  <rect x="16" y="34" width="4" height="4" fill="#70421d"></rect>
  <rect x="24" y="38" width="4" height="4" fill="#a66a35"></rect>
  <rect x="36" y="34" width="4" height="4" fill="#6b3f1b"></rect>
  <rect x="44" y="40" width="4" height="4" fill="#a66a35"></rect>
  <rect x="20" y="46" width="4" height="4" fill="#6b3f1b"></rect>

  <rect x="12" y="24" width="40" height="4" fill="#54b948"></rect>
  <rect x="12" y="24" width="8" height="8" fill="#6fce5c"></rect>
  <rect x="20" y="20" width="8" height="8" fill="#54b948"></rect>
  <rect x="28" y="24" width="8" height="8" fill="#6fce5c"></rect>
  <rect x="36" y="20" width="8" height="8" fill="#54b948"></rect>
  <rect x="44" y="24" width="8" height="8" fill="#6fce5c"></rect>

  <rect x="28" y="12" width="8" height="16" fill="#7a4a1e"></rect>
  <rect x="28" y="12" width="4" height="16" fill="#8d5b2f"></rect>

  <rect x="24" y="4" width="16" height="4" fill="#5abd52"></rect>
  <rect x="20" y="8" width="24" height="4" fill="#2f8e35"></rect>
  <rect x="16" y="12" width="32" height="8" fill="#39a53f"></rect>
  <rect x="20" y="20" width="24" height="4" fill="#2f8e35"></rect>

  <rect x="48" y="18" width="4" height="4" fill="#ffe27a"></rect>
  <rect x="46" y="20" width="8" height="2" fill="#ffe27a" opacity="0.8"></rect>
  <rect x="49" y="17" width="2" height="8" fill="#ffe27a" opacity="0.8"></rect>

  <path d="M12 24h40v28H12z" fill="none" stroke="#40230f" stroke-width="2"></path>
</svg>